<?xml version="1.0" encoding="UTF-8"?>
<svg width="282px" height="282px" viewBox="0 0 282 282" version="1.1" xmlns="http://www.w3.org/2000/svg" xmlns:xlink="http://www.w3.org/1999/xlink">
    <!-- Generator: Sketch 52.2 (67145) - http://www.bohemiancoding.com/sketch -->
    <title>Combined Shape</title>
    <desc>Created with Sketch.</desc>
    <g id="Page-1" stroke="none" stroke-width="1" fill="none" fill-rule="evenodd">
        <g id="Desktop-HD" transform="translate(-597.000000, -326.000000)" fill="#5D8A3D" fill-rule="nonzero">
            <g id="Group" transform="translate(597.000000, 326.000000)">
                <path d="M141,282 C63.1278503,282 0,218.87215 0,141 C0,63.1278503 63.1278503,0 141,0 C218.87215,0 282,63.1278503 282,141 C282,218.87215 218.87215,282 141,282 Z M141,274 C214.453872,274 274,214.453872 274,141 C274,67.5461283 214.453872,8 141,8 C67.5461283,8 8,67.5461283 8,141 C8,214.453872 67.5461283,274 141,274 Z M201.001029,93.3530822 C202.462881,91.6967963 204.990632,91.5391768 206.646918,93.0010291 C208.303204,94.4628814 208.460823,96.9906319 206.998971,98.6469178 L124.773972,191.808247 L75.1987876,143.173564 C73.6218034,141.626497 73.5975506,139.093954 75.1446175,137.516969 C76.6916844,135.939985 79.2242282,135.915732 80.8012124,137.462799 L124.356463,180.191753 L201.001029,93.3530822 Z" id="Combined-Shape"></path>
            </g>
        </g>
    </g>
</svg>